<svg xmlns="http://www.w3.org/2000/svg" viewBox="0 0 512 512" width="512" height="512">
  <!-- Background -->
  <rect x="80" y="40" width="352" height="432" rx="32" fill="#1E40AF" />
  
  <!-- Calculator Display -->
  <rect x="112" y="80" width="288" height="80" rx="8" fill="#F8FAFC" />
  
  <!-- Calculator Buttons -->
  <!-- Row 1 -->
  <rect x="112" y="184" width="64" height="64" rx="8" fill="#7F9CF5" />
  <rect x="192" y="184" width="64" height="64" rx="8" fill="#7F9CF5" />
  <rect x="272" y="184" width="64" height="64" rx="8" fill="#7F9CF5" />
  <rect x="352" y="184" width="48" height="64" rx="8" fill="#F87171" />
  
  <!-- Row 2 -->
  <rect x="112" y="264" width="64" height="64" rx="8" fill="#D1D5DB" />
  <rect x="192" y="264" width="64" height="64" rx="8" fill="#D1D5DB" />
  <rect x="272" y="264" width="64" height="64" rx="8" fill="#D1D5DB" />
  <rect x="352" y="264" width="48" height="64" rx="8" fill="#F87171" />
  
  <!-- Row 3 -->
  <rect x="112" y="344" width="64" height="64" rx="8" fill="#D1D5DB" />
  <rect x="192" y="344" width="64" height="64" rx="8" fill="#D1D5DB" />
  <rect x="272" y="344" width="64" height="64" rx="8" fill="#D1D5DB" />
  <rect x="352" y="344" width="48" height="64" rx="8" fill="#F87171" />
  
  <!-- Row 4 -->
  <rect x="112" y="424" width="144" height="48" rx="8" fill="#D1D5DB" />
  <rect x="272" y="424" width="64" height="48" rx="8" fill="#D1D5DB" />
  <rect x="352" y="424" width="48" height="48" rx="8" fill="#F87171" />
</svg>